<?xml version="1.0" encoding="UTF-8"?>
<svg id="Layer_2" data-name="Layer 2" xmlns="http://www.w3.org/2000/svg" viewBox="0 0 3487.49 3754.99">
  <defs>
    <style>
      .cls-1 {
        fill: none;
      }

      .cls-2 {
        fill: red;
      }

      .cls-3 {
        fill: #fffdba;
      }
    </style>
  </defs>
  <g id="Layer_1-2" data-name="Layer 1">
    <path class="cls-2" d="M2072.35,3388.32l174.83-201.6c-86.22,35.44-151.99,110.1-174.83,201.6ZM2762.05,1829.97h-19.48c61.35.1,101.07,29.77,118.38,81.22-14.45-51.54-47.63-81.22-98.9-81.22ZM2672.71,2659.86l-13.91,52.23,45.29-52.23,156.86-706.66-188.24,706.66ZM563.65,1450.57c-6.77-26.49-23.57-47.16-45.93-60.3-24.39,17.87-40.18,48.9-40.76,82.48-.92,53.55,37.19,102.03,88.14,102.12l30.36.05-31.81-124.35ZM1285.38,3164.43c-71.92,0-137.88,25.43-189.27,67.74-.73.61-1.46,1.22-2.19,1.82-.72.61-1.44,1.22-2.16,1.83-.71.61-1.42,1.23-2.13,1.84-.64.55-1.28,1.11-1.91,1.68-.07.05-.13.1-.19.16-1.24,1.11-2.47,2.22-3.69,3.34l-93.43,251.31c.03.23.05.45.08.67.02.19.05.38.07.57.04.34.07.62.1.83.02.16.04.28.04.36,0,.04.02.08.02.12l249.03,254.83c14.87,2.28,30.11,3.46,45.63,3.46,164.02,0,296.98-132.2,296.98-295.28s-132.96-295.28-296.98-295.28ZM1285.39,3577.47c-65.42,0-118.45-52.72-118.45-117.77s53.03-117.77,118.45-117.77,118.45,52.73,118.45,117.77-53.04,117.77-118.45,117.77Z"/>
    <path class="cls-3" d="M563.65,1450.57c-6.77-26.49-23.57-47.16-45.93-60.3-24.39,17.87-40.18,48.9-40.76,82.48-.92,53.55,37.19,102.03,88.14,102.12l30.36.05-31.81-124.35ZM1166.73,3019.9h0s1131.22.05,1131.22.05l-1131.22-.05ZM1237.14,2818.84v.02l1172.73-.08-1172.73.06ZM2391.81,3019.95h99.35c54.67.01,94.2-32.15,106.95-80.03l60.69-227.83-266.99,307.86ZM1027.53,1830.13v.03s1714.73-.19,1714.73-.19l-1714.73.16Z"/>
    <path class="cls-3" d="M1285.38,3164.43c-71.92,0-137.88,25.43-189.27,67.74-.73.61-1.46,1.22-2.19,1.82-.72.61-1.44,1.22-2.16,1.83-.71.61-1.42,1.23-2.13,1.84-.64.55-1.28,1.11-1.91,1.68-.07.05-.13.1-.19.16-1.24,1.11-2.47,2.22-3.69,3.34l-93.43,251.31c.03.23.05.45.08.67.02.19.05.38.07.57.04.34.07.62.1.83.02.16.04.28.04.36,0,.04.02.08.02.12l249.03,254.83c14.87,2.28,30.11,3.46,45.63,3.46,164.02,0,296.98-132.2,296.98-295.28s-132.96-295.28-296.98-295.28ZM1285.39,3577.47c-65.42,0-118.45-52.72-118.45-117.77s53.03-117.77,118.45-117.77,118.45,52.73,118.45,117.77-53.04,117.77-118.45,117.77Z"/>
    <path class="cls-3" d="M2360.56,3164.43c-40.15,0-78.44,7.92-113.38,22.29-86.22,35.44-151.99,110.1-174.83,201.6-5.72,22.86-8.75,46.77-8.75,71.39,0,163.08,132.95,295.28,296.96,295.28s296.97-132.2,296.97-295.28-132.96-295.28-296.97-295.28ZM2360.58,3577.48c-65.42,0-118.45-52.73-118.45-117.77s53.03-117.77,118.45-117.77,118.44,52.72,118.44,117.77-53.03,117.77-118.44,117.77Z"/>
    <line class="cls-1" x1="985.19" y1="3394.97" x2="976.24" y2="3413.47"/>
    <path class="cls-3" d="M2742.57,1829.97h-.31l-1714.72.19v-.03s-183.59,0-183.59,0l-183.2.02-65.29-255.24-30.36-.05c-50.95-.09-89.06-48.57-88.14-102.12.58-33.58,16.37-64.61,40.76-82.48-17.26-10.15-37.83-15.81-59.67-16.19l-264.33.28-87.9.09c-59.52.06-104.72,46.09-105.8,98.3-.51,24.87,9.08,48.64,25.63,66.98,19.06,21.16,47.39,35.09,80.15,35.14l269.8.39,347.82,1367.47c11.59,45.56,53.88,77.16,104.37,77.17h338.94s0,0,0,0l1131.22.05h93.86l266.99-307.86,13.91-52.23,188.24-706.66v-42.01c-17.31-51.45-57.03-81.12-118.38-81.22ZM2485.07,2818.78h-75.2l-1172.73.08v-.02h-183.64s-141.22.02-141.22.02l-200.25-787.55h358.24l1546.56-.02h40.7l-172.46,787.49Z"/>
    <path class="cls-2" d="M3487.49,1751.65c-114.07-57.54-235.69-75.17-364.93-85.14,69.84,109.57,122.43,217.84,145.22,343.37l-563.69,649.98,156.86-706.66v-42.01c-14.45-51.54-47.63-81.22-98.9-81.22h-19.79l-1714.73.16h-183.58s-183.2.03-183.2.03l-65.29-255.24-31.81-124.35c-6.77-26.49-23.57-47.16-45.93-60.3-17.26-10.15-37.83-15.81-59.67-16.19l-264.33.28c252.45-249.01,539.46-535.02,786.57-788.64l87.98-95.17c33.19-36.24,68.45-70.47,104.2-104.12,81.2-76.42,164.87-149.83,232.38-236.91L1520.78,0c16.94,72.06,16.51,146.98,1.28,218.86-32.3,149.5-110.24,265.6-211.79,380.86l280.17-144.49c76.11-39.26,150.31-74.29,229.98-105.92,184.86-73.05,373.74-106.79,575.04-106.16-163.2,106.73-320.02,228.1-414.05,399.71,420.01-35.76,877.29-10.71,1243.22,208.62,3.91,2.34,7.85,7.09,8.33,10.08.39,2.4-2.84,8.01-5.09,9.88-181.15,17.13-357.18,76.63-514.75,172.81,304.92,133.78,578,352.46,749.53,636.34,10.95,18.12,18.36,34.74,24.84,52.85v18.21Z"/>
    <polygon class="cls-2" points="2742.26 1829.97 1027.54 1830.16 1027.53 1830.13 2742.26 1829.97"/>
  </g>
</svg>