<?xml version="1.0" encoding="UTF-8"?>
<svg id="Layer_2" data-name="Layer 2" xmlns="http://www.w3.org/2000/svg" viewBox="0 0 4427.37 3952.98">
  <defs>
    <style>
      .cls-1 {
        fill: red;
      }

      .cls-2 {
        fill: #fffdba;
      }
    </style>
  </defs>
  <g id="Layer_1-2" data-name="Layer 1">
    <path class="cls-1" d="M1923.94,1489.32c153.39-67.65,464.84-66.5,615.19.18-202.03,68.29-417.65,67.66-615.19-.18Z"/>
    <path class="cls-1" d="M1978.01,3528.36c131.53,65.49,368.93,65.67,501,.05-129.52-66.75-371.68-64.16-501-.05ZM1978.01,3528.36c131.53,65.49,368.93,65.67,501,.05-129.52-66.75-371.68-64.16-501-.05ZM4427.37,1944.4c-7.28-20.31-15.59-38.97-27.87-59.28-192.4-318.44-498.72-563.72-840.75-713.79,176.75-107.88,374.21-174.62,577.4-193.83,2.52-2.11,6.15-8.4,5.71-11.09-.54-3.35-4.97-8.69-9.34-11.31-410.48-246.03-923.4-274.11-1394.53-234.01,105.47-192.49,281.37-328.64,464.44-448.36-225.8-.7-437.67,37.14-645.02,119.09-89.37,35.48-172.61,74.77-257.97,118.81l-314.28,162.07c113.92-129.29,201.34-259.51,237.57-427.2,17.08-80.64,17.57-164.68-1.43-245.5l-130.04,167.71c-75.72,97.68-169.58,180.02-260.66,265.74-40.11,37.75-79.66,76.15-116.89,116.8l-98.68,106.75C999.26,1288.96,162.64,2100.27,20.83,2237.52c-.31.28-.61.58-.92.86-1.03,1.01-2.01,1.97-2.97,2.86-1.36,1.35-2.64,2.59-3.86,3.76-.05.05-.12.12-.16.14-.71.68-1.36,1.32-1.99,1.95-.07.07-.14.11-.19.18-.37.36-.75.71-1.1,1.06-.28.28-.56.54-.84.79-.17.17-.33.31-.47.45-.35.35-.68.68-.98.96-.21.21-.42.42-.63.61-1.48,1.42-2.74,2.64-3.72,3.6-1.99,1.92-3,2.9-3,2.9l1337.99,1288.02,187.3,180.3c19.96,4.99,40.96,7.5,62.81,7.12l500.44-8.61c30.92-.53,59.62-3.36,88.17-6.22l-157.93-3.48-406.93-8.48c-139.77-2.91-248.84-110.69-244.39-251.29l3.74-118.14c148.98,21.87,293.19,29.79,443.4,37.13,177.71,8.67,353.15,9.54,529.57,6.62-14.71-34.45-18.59-67.84-17.64-96.22-145.63-1.09-290.54,2.84-437.34,8.5-98.72,2.72-189.47,7.97-290.89,16.21,78.37-222.5,212.77-404.32,429.86-497.74,128.26,66.66,271.95,66.49,400.73.07,30.86,13.38,60.36,28.76,88.45,45.97,12.22-28.9,34.82-54.21,54.79-72.59-20.99-10.66-42.82-20.18-65.41-28.45,81.49-77.59,133.95-169.6,143.9-279.22,21.55-237.29-159.22-456.73-410.28-442.63,126.64,22.56,243.62,96.55,299.59,220.29,52.97,117.11,40.88,257.45-34.96,363.88-73.45,103.07-200.13,154.65-326.22,138.86-115.73-14.51-225.82-88.5-274.94-202.22-48.49-112.27-37.47-237.14,28.93-345.52,56.74-92.6,160.82-157.05,276.3-175.37-147.42-10.53-285.1,67.37-356.88,191.31-102.69,177.33-66.7,392.15,88.43,529.12-40.47,19.67-76.88,33.09-111.6,55.33-160.6,102.89-276.29,300.88-257.78,500.36l-206.12,21.69,20.28-750.35,9.57-896.06,467.79,38.45c262.34,21.56,918.81,1.94,1198.96-38.66l5.38,844.06c9.26-2.72,19.98-4.21,32.4-3.94,0,0,18.19.18,39.02,8.81l-1.28,92.69c-11.99-4.75-24.88-7.13-37.74-6.71-11.02.36-21.64,2.58-31.53,6.37-35.02,13.46-60.66,46.82-61.04,88.32l-.94,104.87c-61.77,14.54-113.31,36.63-166.11,69.55l-85.51-82.27c-35.57-34.23-89.77-22.62-121.27,7.42-1.18,1.12-2.33,2.28-3.45,3.46-27.39,28.72-38.99,73.79-16.87,109.07,2.03,3.24,4.34,6.4,6.96,9.45,26.1,30.51,55.56,58.49,84.71,88.65-32.94,53.1-55.12,107.7-69.92,166.76-41.99.37-81.29-.18-120.33,2.34-48.81,3.14-77.52,48.02-78.14,91.68-.03,1.18-.02,2.36,0,3.54.74,35.93,20.97,75.8,57.03,87.61,6.3,2.07,13.1,3.27,20.36,3.45l122.1,2.98c14.64,60.54,36.65,112.06,69.22,164.86l-77.32,78.5c-23.53,23.88-30.69,54.95-23.53,83.87,1.68,6.78,4.14,13.43,7.36,19.85,2.42,4.82,5.26,9.51,8.52,14.01l179.7-171.56,94.87-90.54c-31.54-33.44-55.09-74.5-67.62-120.11-4.88-17.75-8.08-36.18-9.44-55.13-.49-6.85-.75-13.76-.75-20.73,0-23.04,2.73-45.45,7.89-66.92,7.25-30.22,19.31-58.58,35.32-84.22,45.5-72.85,122.92-123.71,212.68-133.02,9.8-1.02,19.74-1.54,29.81-1.54s19.99.52,29.78,1.53c68.73,7.12,130.23,38.61,175.71,85.67l274.35-261.81,179.08-170.89,419.76-401.12c-25.55-140.8-84.55-262.25-162.89-385.15,144.97,11.18,281.39,30.96,409.35,95.5v-20.43ZM3061.02,1678.99l-477.43-38.52c-259.71-20.95-910.21-.53-1187.59,38.81l-.3-110.68c-.35-132.65,107.99-223.59,237.29-222.62l565.39,4.23,651.77-1.66c119.53-.31,207.8,104.51,211.47,218.22l-.6,112.22ZM1978.01,3528.36c131.53,65.49,368.93,65.67,501,.05-129.52-66.75-371.68-64.16-501-.05Z"/>
    <g>
      <path class="cls-2" d="M2539.13,1489.5c-202.03,68.29-417.65,67.66-615.19-.18,153.39-67.65,464.84-66.5,615.19.18Z"/>
      <path class="cls-2" d="M3012.12,1301.43c-45.4-26.98-98.2-49.16-152.49-49.56l-624.9-4.7-645.88,4.98c-135.13,1.04-282.79,137.99-282.89,293.66l-.39,634.06,14.31,1264.69c.39,34.7,6.71,68.97,18.11,101.1,30.81,86.87,98.77,158.13,187.3,180.3,19.96,4.99,40.96,7.5,62.81,7.12l500.44-8.61c30.92-.53,59.62-3.36,88.17-6.22l-157.93-3.48-406.93-8.48c-139.77-2.91-248.84-110.69-244.39-251.29l3.74-118.14c148.98,21.87,293.19,29.79,443.4,37.13,177.71,8.67,353.15,9.54,529.57,6.62-14.71-34.45-18.59-67.84-17.64-96.22-145.63-1.09-290.54,2.84-437.34,8.5-98.72,2.72-189.47,7.97-290.89,16.21,78.37-222.5,212.77-404.32,429.86-497.74,128.26,66.66,271.95,66.49,400.73.07,30.86,13.38,60.36,28.76,88.45,45.97,12.22-28.9,34.82-54.21,54.79-72.59-20.99-10.66-42.82-20.18-65.41-28.45,81.49-77.59,133.95-169.6,143.9-279.22,21.55-237.29-159.22-456.73-410.28-442.63,126.64,22.56,243.62,96.55,299.59,220.29,52.97,117.11,40.88,257.45-34.96,363.88-73.45,103.07-200.13,154.65-326.22,138.86-115.73-14.51-225.82-88.5-274.94-202.22-48.49-112.27-37.47-237.14,28.93-345.52,56.74-92.6,160.82-157.05,276.3-175.37-147.42-10.53-285.1,67.37-356.88,191.31-102.69,177.33-66.7,392.15,88.43,529.12-40.47,19.67-76.88,33.09-111.6,55.33-160.6,102.89-276.29,300.88-257.78,500.36l-206.12,21.69,20.28-750.35,9.57-896.06,467.79,38.45c262.34,21.56,918.81,1.94,1198.96-38.66l5.38,844.06c9.26-2.72,19.98-4.21,32.4-3.94,0,0,18.19.18,39.02,8.81l2.52-182.4,1.69-793.93c.01-6.16,6.98-22.35,7.21-28.17-8.05-92.02-56.38-180.23-137.79-228.62ZM3061.02,1678.99l-477.43-38.52c-259.71-20.95-910.21-.53-1187.59,38.81l-.3-110.68c-.35-132.65,107.99-223.59,237.29-222.62l565.39,4.23,651.77-1.66c119.53-.31,207.8,104.51,211.47,218.22l-.6,112.22Z"/>
      <path class="cls-2" d="M2479.01,3528.41c-132.07,65.62-369.47,65.44-501-.05,129.32-64.11,371.48-66.7,501,.05Z"/>
      <path class="cls-2" d="M3768.39,3284.42c-1.97-49.28-41.87-91.15-94.73-91.64l-104.82-.97c-14.21-62.99-36.4-113.94-69.45-167.35l74.25-75.28c34.43-34.92,34.84-87.23,8.43-122.69-3.84-5.17-8.26-9.98-13.22-14.33-40.98-35.88-97.41-30.18-135.53,8.31l-68.64,69.31c-53.51-33.52-104.52-55.16-166.37-69.85l-1.88-110.47c-.66-38.92-26.62-69.31-59.22-82.22-11.99-4.75-24.88-7.13-37.74-6.71-11.02.36-21.64,2.58-31.53,6.37-35.02,13.46-60.66,46.82-61.04,88.32l-.94,104.87c-61.77,14.54-113.31,36.63-166.11,69.55l-85.51-82.27c-35.57-34.23-89.77-22.62-121.27,7.42-1.18,1.12-2.33,2.28-3.45,3.46-27.39,28.72-38.99,73.79-16.87,109.07,2.03,3.24,4.34,6.4,6.96,9.45,26.1,30.51,55.56,58.49,84.71,88.65-32.94,53.1-55.12,107.7-69.92,166.76-41.99.37-81.29-.18-120.33,2.34-48.81,3.14-77.52,48.02-78.14,91.68-.03,1.18-.02,2.36,0,3.54.74,35.93,20.97,75.8,57.03,87.61,6.3,2.07,13.1,3.27,20.36,3.45l122.1,2.98c14.64,60.54,36.65,112.06,69.22,164.86l-77.32,78.5c-23.53,23.88-30.69,54.95-23.53,83.87,1.68,6.78,4.14,13.43,7.36,19.85,2.42,4.82,5.26,9.51,8.52,14.01,3.33,4.59,7.08,8.98,11.26,13.13,36.97,36.73,92.81,40.43,130.64,3.11l26.71-26.35,28.51-28.12,22.99-22.67c10.79,6.8,21.58,13.09,32.4,18.91,15.08,8.12,30.23,15.35,45.57,21.87,28.64,12.16,57.94,21.82,88.65,29.96l.43,107.1c.21,55.66,44.06,91.15,95.04,91.17,55.57.04,94.87-39.83,95.16-94.77l.55-104.42c62.77-14.82,113.04-36.94,166.1-69.31l75.5,74.67c38.97,38.55,100.1,36.06,135.81-2.08,34.08-36.41,35.56-94.68-1.56-132.35l-74.31-75.41c33.22-52.95,54.88-104.8,69.53-165.48l110.67-1.89c53.19-.9,90.91-48.93,88.97-97.52ZM3102.23,3572.5h-.86c-15.49-.05-30.68-1.33-45.49-3.75-63.23-10.32-119.49-41.38-161.54-85.98-31.54-33.44-55.09-74.5-67.62-120.11-4.88-17.75-8.08-36.18-9.44-55.13-.49-6.85-.75-13.76-.75-20.73,0-23.04,2.73-45.45,7.89-66.92,7.25-30.22,19.31-58.58,35.32-84.22,45.5-72.85,122.92-123.71,212.68-133.02,9.8-1.02,19.74-1.54,29.81-1.54s19.99.52,29.78,1.53c68.73,7.12,130.23,38.61,175.71,85.67,49.66,51.4,80.21,121.38,80.21,198.5,0,157.79-127.91,285.7-285.7,285.7Z"/>
    </g>
  </g>
</svg>