<?xml version="1.0" encoding="UTF-8"?>
<svg id="Layer_2" data-name="Layer 2" xmlns="http://www.w3.org/2000/svg" viewBox="0 0 3947 3797.19">
  <defs>
    <style>
      .cls-1 {
        fill: red;
      }

      .cls-2 {
        fill: #fffdba;
      }

      .cls-3 {
        fill: #0a9999;
      }
    </style>
  </defs>
  <g id="Layer_1-2" data-name="Layer 1">
    <path class="cls-3" d="M1588.23,2041.36c0,85.49-67.48,154.79-150.72,154.79s-150.71-69.3-150.71-154.79,67.48-154.78,150.71-154.78,150.72,69.3,150.72,154.78Z"/>
    <path class="cls-3" d="M1990.48,2041.37c0,85.48-67.48,154.78-150.71,154.78s-150.72-69.3-150.72-154.78,67.48-154.79,150.72-154.79,150.71,69.3,150.71,154.79Z"/>
    <path class="cls-3" d="M2493.3,2041.37c0,85.48-67.48,154.78-150.72,154.78s-150.71-69.3-150.71-154.78,67.47-154.79,150.71-154.79,150.72,69.3,150.72,154.79Z"/>
    <path class="cls-1" d="M3947,1733.43c-6.49-18.11-13.89-34.73-24.85-52.84-171.52-283.89-444.6-502.56-749.52-636.35,157.57-96.18,333.6-155.67,514.74-172.8,2.26-1.88,5.49-7.49,5.09-9.89-.48-2.98-4.42-7.74-8.32-10.08-365.94-219.34-823.21-244.37-1243.22-208.61,94.02-171.61,250.84-292.99,414.05-399.72-201.3-.62-390.18,33.11-575.04,106.17-79.67,31.63-153.88,66.65-229.98,105.91l-280.18,144.49c101.56-115.26,179.5-231.35,211.79-380.85,15.23-71.89,15.67-146.81-1.27-218.86l-115.93,149.51c-67.51,87.08-151.19,160.49-232.38,236.91-35.76,33.65-71.01,67.89-104.2,104.12l-87.98,95.18C890.84,1149.11,144.99,1872.39,18.57,1994.75c-.28.25-.55.52-.82.77-.92.89-1.79,1.75-2.65,2.54-1.21,1.21-2.35,2.32-3.44,3.36-.04.04-.1.11-.15.13-.62.6-1.21,1.17-1.77,1.73-.06.06-.12.1-.17.17-.33.31-.66.62-.98.93-.25.25-.5.48-.75.71-.14.15-.29.27-.41.4-.32.31-.61.6-.88.86-.19.18-.38.37-.56.54-1.32,1.27-2.44,2.36-3.32,3.21-1.77,1.71-2.67,2.59-2.67,2.59l1236.17,1189.99,221.11,212.86,281-240.22c96.75,129.49,239.26,206.99,396.61,207.94l152.82.92,202.91-193.71c-16.78-8.88-34.91-12.92-53.49-12.96l-302.1-.7c-98.27-.23-185.17-52.76-241.49-134.14l84.03-72.1,358.66.77c277.02.6,508.1-223.84,508.48-511.02l.7-522.27,101,.37c166.17.62,301.02,137.48,301.02,309.72v220.13s105.63-100.81,105.63-100.81l95.03-90.81,279.19-266.78c-22.78-125.52-75.37-233.8-145.22-343.36,129.24,9.97,250.87,27.6,364.94,85.13v-18.21ZM2342.75,2764.05l-402.75.5c-24.85.03-48.95,10.64-70.04,28.68l-431.55,369.33-1.32-295.32c-.26-57.26-43.86-101.66-100.09-102.82-166.53-1.88-301.56-137.19-301.55-310.3l.04-825.61c.01-171.84,134.22-309.81,301.91-309.82l1004.78-.04c167.64,0,301.81,137.9,301.81,309.9l.03,825.68c.01,171.97-134.65,309.62-301.27,309.82Z"/>
    <path class="cls-2" d="M3448.09,2276.65l-.02-34.81c-.19-275.62-216.37-507.34-482.72-509.5l-120.29-.98.59-95.92c1.77-292.75-225.75-524.11-510.24-524.11h-991.63c-277.16,0-509.03,223.59-508.82,511.37l.6,844.31c.17,241.34,171.71,442.34,400.27,493.71l.34,241.96,221.11,212.86,281-240.22c96.75,129.49,239.26,206.99,396.61,207.94l152.82.92,121.5.74,469.98,386.38c35.4,29.11,76.06,33.76,113.83,13.51,29.58-15.85,53.25-49.71,53.33-90.83l.6-320.18c235.31-52.13,401.71-260.66,401.54-506.47l-.4-590.68ZM1438.41,3162.56l-1.32-295.32c-.26-57.26-43.86-101.66-100.09-102.82-166.53-1.88-301.56-137.19-301.55-310.3l.04-825.61c.01-171.84,134.22-309.81,301.91-309.82l1004.78-.04c167.64,0,301.81,137.9,301.81,309.9l.03,825.68c.01,171.97-134.65,309.62-301.27,309.82l-402.75.5c-24.85.03-48.95,10.64-70.04,28.68l-431.55,369.33ZM3247.4,2867.35c0,173.02-134.9,308.34-301.42,310.27-56.57.66-99.95,45.63-100.25,102.63l-1.04,197.65-335.06-274.75c-6.09-5-12.45-9.21-19.01-12.68-16.78-8.88-34.91-12.92-53.49-12.96l-302.1-.7c-98.27-.23-185.17-52.76-241.49-134.14l84.03-72.1,358.66.77c277.02.6,508.1-223.84,508.48-511.02l.7-522.27,101,.37c166.17.62,301.02,137.48,301.02,309.72v220.13s-.03,399.08-.03,399.08Z"/>
    <path class="cls-1" d="M1588.23,2041.36c0,85.49-67.48,154.79-150.72,154.79s-150.71-69.3-150.71-154.79,67.48-154.78,150.71-154.78,150.72,69.3,150.72,154.78Z"/>
    <path class="cls-2" d="M1990.48,2041.37c0,85.48-67.48,154.78-150.71,154.78s-150.72-69.3-150.72-154.78,67.48-154.79,150.72-154.79,150.71,69.3,150.71,154.79Z"/>
    <path class="cls-1" d="M2493.3,2041.37c0,85.48-67.48,154.78-150.72,154.78s-150.71-69.3-150.71-154.78,67.47-154.79,150.71-154.79,150.72,69.3,150.72,154.79Z"/>
  </g>
</svg>