<?xml version="1.0" encoding="UTF-8"?>
<svg id="Layer_2" data-name="Layer 2" xmlns="http://www.w3.org/2000/svg" viewBox="0 0 3947 3287.52">
  <defs>
    <style>
      .cls-1 {
        fill: red;
      }

      .cls-2 {
        fill: #fffdba;
      }
    </style>
  </defs>
  <g id="Layer_1-2" data-name="Layer 1">
    <path class="cls-1" d="M3947,1733.44c-6.48-18.11-13.89-34.74-24.84-52.85-171.53-283.89-444.61-502.56-749.53-636.35,157.57-96.17,333.6-155.67,514.75-172.8,2.25-1.87,5.48-7.48,5.09-9.88-.48-2.99-4.42-7.74-8.33-10.08-365.93-219.34-823.21-244.38-1243.22-208.62,94.03-171.61,250.85-292.98,414.05-399.71-201.3-.63-390.18,33.11-575.04,106.16-79.67,31.63-153.87,66.66-229.98,105.92l-280.17,144.49c101.55-115.26,179.49-231.36,211.79-380.86,15.23-71.88,15.66-146.8-1.28-218.86l-115.93,149.52c-67.51,87.08-151.18,160.49-232.38,236.91-35.75,33.65-71.01,67.88-104.2,104.12l-87.98,95.17C890.85,1149.12,144.99,1872.4,18.57,1994.75c-.27.25-.54.52-.81.77-.92.9-1.8,1.76-2.65,2.55-1.21,1.21-2.36,2.31-3.45,3.36-.04.04-.1.1-.14.12-.63.61-1.21,1.17-1.78,1.73-.06.07-.12.11-.16.17-.34.31-.67.63-.98.94-.25.25-.5.48-.75.71-.15.15-.3.27-.42.4-.31.31-.61.6-.88.85-.19.19-.37.38-.56.54-1.31,1.28-2.44,2.36-3.32,3.22-1.77,1.71-2.67,2.58-2.67,2.58l1032.96,1057.02,212.85,217.81,1373.48-.02,143.18-165.1h-133.55v-715.5h550.47v234.76l165.15-190.43,382.75-441.35c-22.79-125.53-75.38-233.8-145.22-343.37,129.24,9.97,250.86,27.6,364.93,85.14v-18.21ZM1747.12,3122.4h-549.09v-1155.79h549.09v1155.79ZM2463.8,3122.4h-550.47v-1816.24h550.47v1816.24Z"/>
    <path class="cls-2" d="M3257.9,2241.72h-629.06s.16-1012.26.16-1012.26c.01-49.98-32.7-86.79-83.05-88.43h-711.26c-48.45-.45-86.37,34.68-86.38,83.45l-.13,576.99-635.75.3c-48.26.03-80.74,41.61-79.54,88.28l.07,1179.66,212.85,217.81,1373.48-.02h640.73c50.19-.01,84.37-37.95,84.38-83.57l.14-752.7.02-127.56c-2.58-48.75-38.22-81.95-86.66-81.95ZM1747.12,3122.4h-549.09v-1155.79h549.09v1155.79ZM2463.8,3122.4h-550.47v-1816.24h550.47v1816.24ZM3179.39,3122.4h-550.47v-715.5h550.47v715.5Z"/>
  </g>
</svg>