<?xml version="1.0" encoding="UTF-8"?>
<svg id="Layer_2" data-name="Layer 2" xmlns="http://www.w3.org/2000/svg" viewBox="0 0 3947 3550.26">
  <defs>
    <style>
      .cls-1 {
        fill: red;
      }

      .cls-2 {
        fill: #fffdba;
        stroke: #fffdba;
        stroke-miterlimit: 10;
        stroke-width: 28px;
      }

      .cls-3 {
        fill: #0a9999;
      }
    </style>
  </defs>
  <g id="Layer_1-2" data-name="Layer 1">
    <path class="cls-1" d="M1349.93,3001.24l.08-295.66c.01-17.21,13.1-29.61,29.76-32.06h295.61c18.61.01,34.44,13.26,34.45,32.46v294.86c.01,16.99-12.85,30.49-31.77,32.57l-298.33-.04c-17.2-2.56-28.92-14.85-29.8-32.13Z"/>
    <path class="cls-1" d="M1709.75,1675.14l.23,295.36c.02,16.54-13.29,33.19-32.63,33.18l-296.61-.06c-17.36-.01-30.8-16.58-30.79-33.01l.07-295.56c0-16.51,13.82-29.1,29.74-31.35h295.64c17.79.01,34.34,12.78,34.35,31.44Z"/>
    <path class="cls-1" d="M1709.72,2190.57l.55,294.96c.03,16.54-12.76,29.67-29.88,33.24l-298.47-.03c-17.78-1.88-31.95-14.21-31.95-32.86l.03-295.69c0-17.06,13.43-29.31,29.85-31.74h295.48c18.45.01,34.35,13.06,34.39,32.12Z"/>
    <polygon class="cls-3" points="1343.81 3306.3 2369.49 3306.12 2302.19 3370.37 1410.34 3370.35 1343.81 3306.3"/>
    <path class="cls-3" d="M2656.78,2248.4c2.03,13.99-5.39,37.37-29.2,37.37l-771.65.17c-21.51.01-34.53-14.75-34.34-32.53.19-17.17,13.64-31.37,34.48-31.37l768.47.02c17.4,0,30.31,12.99,32.24,26.34Z"/>
    <path class="cls-3" d="M2657.31,1907.71c.06,16.25-11.92,32.49-32.06,32.49l-769.43.05c-21.02,0-34.22-15.1-34-32.61.2-16.67,13.73-31.46,34.26-31.45l769.2.05c20.16.01,31.97,16.45,32.03,31.47Z"/>
    <path class="cls-3" d="M1818.53,2423.17c.03-16.26,11.98-31.84,32.53-31.84l774.2-.02c20.09,0,33.09,15.52,33.14,31.85.05,16.28-13.07,32.18-33.16,32.18l-774.16-.02c-20.43,0-32.59-16.12-32.55-32.15Z"/>
    <path class="cls-3" d="M2659.45,1737.56c.32,18.29-12.73,33.27-34.04,33.27l-769.64.05c-20.59,0-33.96-11.66-35.81-28.33-1.9-17.16,10.1-35.83,31.85-35.83l773.41-.07c20.41,0,33.96,15.25,34.23,30.91Z"/>
    <path class="cls-1" d="M3947,1751.65c-114.08-57.54-235.7-75.17-364.94-85.14,69.85,109.56,122.44,217.84,145.22,343.36l-374.22,357.6-189.74,181.06-48.09,45.9-265.75-153.75-181.75,105.44,310.24,179.29-48.29,46.08-326.86-188.78-162.2,95.13,365.98,211.11-48.41,46.19-350.46-202.07-.31,472.53,42.01,24.2-48.41,46.22-44.91-26.61c-5.22-5.29-12.39-19.11-12.39-27.68v-251.6s-487.97-.09-487.97-.09c-19.86,0-33.95-14.41-34.01-31.52-.06-17.48,13.43-32.16,33.68-32.16l488.19-.07-.07-105.3-490.37-.23c-23.94-.01-34.53-20.07-32.23-37,2.08-15.35,15.66-26.91,34.48-26.91l488.01-.07.06-57.17c1.15-9.93,6.53-24.17,16.43-29.89l457.25-264.07-.03-883.51-281.27-.79c-19.04-.49-32.3-13.76-33.32-32.45l-.32-275.21-1301.4.39.04,1974.62-64.32-61.91L0,2012.69s.89-.88,2.67-2.59c.87-.85,2-1.94,3.31-3.21.19-.17.38-.35.57-.54.27-.25.56-.54.87-.86.13-.12.27-.25.42-.39.25-.23.5-.46.75-.71.31-.32.65-.63.98-.94.04-.06.11-.11.17-.17.56-.56,1.14-1.13,1.77-1.73.04-.02.11-.08.15-.13,1.08-1.04,2.23-2.14,3.44-3.35.85-.8,1.73-1.65,2.65-2.55.27-.25.54-.52.81-.77,126.42-122.36,872.28-845.64,1421.24-1409.03l87.97-95.17c33.19-36.24,68.45-70.48,104.21-104.13,81.19-76.41,164.87-149.83,232.38-236.9L1980.29,0c16.94,72.06,16.5,146.97,1.27,218.86-32.3,149.5-110.24,265.59-211.79,380.86l280.17-144.49c76.11-39.27,150.31-74.29,229.98-105.92,184.86-73.06,373.75-106.79,575.04-106.17-163.2,106.73-320.02,228.11-414.04,399.72,420.01-35.76,877.28-10.72,1243.22,208.62,3.9,2.33,7.84,7.09,8.32,10.07.4,2.4-2.84,8.01-5.09,9.89-181.14,17.13-357.18,76.63-514.75,172.8,304.92,133.79,578,352.46,749.53,636.35,10.95,18.11,18.36,34.73,24.85,52.84v18.22Z"/>
    <g>
      <path class="cls-2" d="M3337.24,2648.88l-173.92-100.35-282.22-162.84-.02-929.73-333.79-326.4-1376.53.1c-18.54.97-34.17,11.68-34.17,31.87l-.04,1945.26,64.32,61.91-.04-1974.62,1301.4-.39.32,275.21c1.02,18.69,14.28,31.96,33.32,32.45l281.27.79.03,883.51-457.25,264.07c-9.9,5.72-15.28,19.96-16.43,29.89l-.06,57.17-488.01.07c-18.82,0-32.4,11.56-34.48,26.91-2.3,16.93,8.29,36.99,32.23,37l490.37.23.07,105.3-488.19.07c-20.25,0-33.74,14.68-33.68,32.16.06,17.11,14.15,31.52,34.01,31.52l487.98.09v251.6c-.01,8.57,7.16,22.39,12.38,27.68l44.91,26.61,50.78,30.09h-82.31s-1025.68.19-1025.68.19l66.53,64.05,891.85.02h262.87s284.79,163.73,284.79,163.73l484.43-279.69c12.49-7.22,20.39-18.6,20.4-36.18l.05-541.41c-1.63-10.87-7.49-22.18-17.49-27.94ZM2566.21,1437.25l.99-198.52,201.35,197.23-202.34,1.29ZM2849.48,2440.68l265.75,153.75,142.92,82.69-180.96,105.63-99.22-57.34-310.24-179.29,181.75-105.44ZM2816.87,3441.45l-367.44-211.65-42.01-24.2.31-472.53,350.46,202.07,59.27,34.17-.59,472.14ZM2806.6,2888.95l-365.98-211.11,162.2-95.13,326.86,188.78,82.09,47.41-161.52,95.23-43.65-25.18ZM2881.36,3441.6l-.26-472.82,172.83-98.85.72,141.67c.09,18.36,12.91,31.8,29.57,33.19,13.72,1.16,33.7-10.46,33.75-28.38l.45-184.25,171.86-98.8.7,472.39-409.62,235.85Z"/>
      <path class="cls-2" d="M2659.45,1737.56c.32,18.29-12.73,33.27-34.04,33.27l-769.64.05c-20.59,0-33.96-11.66-35.81-28.33-1.9-17.16,10.1-35.83,31.85-35.83l773.41-.07c20.41,0,33.96,15.25,34.23,30.91Z"/>
      <path class="cls-2" d="M2658.4,2423.16c.05,16.28-13.07,32.18-33.16,32.18l-774.16-.02c-20.43,0-32.59-16.12-32.55-32.15.03-16.26,11.98-31.84,32.53-31.84l774.2-.02c20.09,0,33.09,15.52,33.14,31.85Z"/>
      <path class="cls-2" d="M2627.58,2285.77l-771.65.17c-21.51.01-34.53-14.75-34.34-32.53.19-17.17,13.64-31.37,34.48-31.37l768.47.02c17.4,0,30.31,12.99,32.24,26.34,2.03,13.99-5.39,37.37-29.2,37.37Z"/>
      <path class="cls-2" d="M2657.31,1907.71c.06,16.25-11.92,32.49-32.06,32.49l-769.43.05c-21.02,0-34.22-15.1-34-32.61.2-16.67,13.73-31.46,34.26-31.45l769.2.05c20.16.01,31.97,16.45,32.03,31.47Z"/>
      <path class="cls-2" d="M1675.38,2673.53h-295.61c-16.66,2.44-29.75,14.84-29.76,32.05l-.08,295.66c.88,17.28,12.6,29.57,29.8,32.13l298.33.04c18.92-2.08,31.78-15.58,31.77-32.57v-294.86c-.01-19.2-15.84-32.45-34.45-32.45ZM1646,2969.7h-232.15v-232.22h232.15v232.22Z"/>
      <path class="cls-2" d="M1709.75,1675.14c-.01-18.66-16.56-31.43-34.35-31.43h-295.64c-15.92,2.24-29.74,14.83-29.74,31.34l-.07,295.56c-.01,16.43,13.43,33,30.79,33.01l296.61.06c19.34.01,32.65-16.64,32.63-33.18l-.23-295.36ZM1646,1939.6h-232.15v-232.26h232.15v232.26Z"/>
      <path class="cls-2" d="M1709.72,2190.57c-.04-19.06-15.94-32.11-34.39-32.11h-295.48c-16.42,2.42-29.85,14.67-29.85,31.73l-.03,295.69c0,18.65,14.17,30.98,31.95,32.86l298.47.03c17.12-3.57,29.91-16.7,29.88-33.24l-.55-294.96ZM1646.11,2454.67h-232.26v-232.26h232.26v232.26Z"/>
    </g>
  </g>
</svg>