<?xml version="1.0" encoding="UTF-8"?>
<svg id="Layer_2" data-name="Layer 2" xmlns="http://www.w3.org/2000/svg" viewBox="0 0 4851.15 4849.77">
  <defs>
    <style>
      .cls-1 {
        fill: #ccc;
      }
    </style>
  </defs>
  <g id="Layer_1-2" data-name="Layer 1">
    <path class="cls-1" d="M3986.08,4119.44l-271.27,633.42c-24.26,56.65-78.15,91.44-130.35,96.16-63.65,5.76-123.57-22.26-157.09-80.17l-544.01-940.02c552.84-129.22,1019.15-460.53,1323.76-942.25l618.24,1061.17c35.15,60.34,34.19,124.49-1.96,179.98-33.49,51.41-92.77,82.07-161.12,73.78l-676.22-82.07Z"/>
    <path class="cls-1" d="M1135.48,4752.19l-266.91-631.93-692.52,82.72c-60.56,7.23-116.45-23.63-145.59-64.39-35.83-50.11-41.58-116.51-9.07-172.3l628.55-1078.76c306.56,481.56,767.48,810.18,1317.7,941.14l-545.66,942.34c-32.06,55.37-91.1,81.78-149.59,78.48-54.21-3.06-111.05-36.07-136.92-97.3Z"/>
    <path class="cls-1" d="M2485.47,0C1503.3,0,707.08,796.21,707.08,1778.39s796.22,1778.39,1778.39,1778.39,1778.39-796.21,1778.39-1778.39S3467.65,0,2485.47,0ZM3257.5,2676.89h-1544.06v-197.96l574.07-497.09c202.36-173.76,310.13-340.92,310.13-475.09,0-107.78-63.78-162.76-136.37-162.76-85.78,0-180.36,81.38-180.36,257.34h-549.87c10.99-492.69,307.93-721.44,783.02-721.44s728.04,252.94,728.04,591.67c0,237.55-70.38,354.12-373.92,655.45h389.32v549.88Z"/>
  </g>
</svg>