<?xml version="1.0" encoding="UTF-8"?>
<svg id="Layer_2" data-name="Layer 2" xmlns="http://www.w3.org/2000/svg" viewBox="0 0 4851.15 4849.77">
  <defs>
    <style>
      .cls-1 {
        fill: #b55a00;
      }
    </style>
  </defs>
  <g id="Layer_1-2" data-name="Layer 1">
    <path class="cls-1" d="M3986.08,4119.44l-271.27,633.42c-24.26,56.65-78.15,91.44-130.35,96.16-63.65,5.76-123.57-22.26-157.09-80.17l-544.01-940.02c552.84-129.22,1019.15-460.53,1323.76-942.25l618.24,1061.17c35.15,60.34,34.19,124.49-1.96,179.98-33.49,51.41-92.77,82.07-161.12,73.78l-676.22-82.07Z"/>
    <path class="cls-1" d="M1135.48,4752.19l-266.91-631.93-692.52,82.72c-60.56,7.23-116.45-23.63-145.59-64.39-35.83-50.11-41.58-116.51-9.07-172.3l628.55-1078.76c306.56,481.56,767.48,810.18,1317.7,941.14l-545.66,942.34c-32.06,55.37-91.1,81.78-149.59,78.48-54.21-3.06-111.05-36.07-136.92-97.3Z"/>
    <path class="cls-1" d="M2485.47,0C1503.3,0,707.08,796.21,707.08,1778.39s796.22,1778.39,1778.39,1778.39,1778.39-796.21,1778.39-1778.39S3467.65,0,2485.47,0ZM2503.64,2666.71c-536.63,0-758.98-218.07-776.08-628.56h564.42c8.56,109.04,51.32,177.45,168.9,177.45,94.07,0,143.25-62,143.25-126.14s-53.45-132.55-160.35-132.55h-160.35v-374.14h151.8c115.45,0,168.9-68.42,168.9-132.56,0-57.72-42.76-113.31-124-113.31-91.94,0-134.7,55.59-153.94,164.62h-562.28c25.65-374.14,252.28-611.45,731.18-611.45,444.7,0,711.94,149.65,711.94,459.66,0,190.28-109.03,339.93-301.45,386.97,198.83,34.21,337.8,194.55,337.8,389.11,0,333.52-237.32,540.9-739.74,540.9Z"/>
  </g>
</svg>