<?xml version="1.0" encoding="UTF-8"?>
<svg id="Layer_2" data-name="Layer 2" xmlns="http://www.w3.org/2000/svg" viewBox="0 0 3947 3720.5">
  <defs>
    <style>
      .cls-1 {
        fill: red;
      }

      .cls-2 {
        fill: #fffdba;
      }
    </style>
  </defs>
  <g id="Layer_1-2" data-name="Layer 1">
    <path class="cls-1" d="M3947,1733.44c-6.48-18.11-13.89-34.74-24.84-52.85-171.53-283.89-444.61-502.56-749.53-636.35,157.57-96.17,333.6-155.67,514.75-172.8,2.25-1.87,5.48-7.48,5.09-9.88-.48-2.99-4.42-7.74-8.33-10.08-365.93-219.34-823.21-244.38-1243.22-208.62,94.03-171.61,250.85-292.98,414.05-399.71-201.3-.63-390.18,33.11-575.04,106.16-79.67,31.63-153.87,66.66-229.98,105.92l-280.17,144.49c101.55-115.26,179.49-231.36,211.79-380.86,15.23-71.88,15.66-146.8-1.28-218.86l-115.93,149.52c-67.51,87.08-151.18,160.49-232.38,236.91-35.75,33.65-71.01,67.88-104.2,104.12l-87.98,95.17C890.85,1149.12,144.99,1872.4,18.57,1994.75c-.27.25-.54.52-.81.77-.92.9-1.8,1.76-2.65,2.55-1.21,1.21-2.36,2.31-3.45,3.36-.04.04-.1.1-.14.12-.63.61-1.21,1.17-1.78,1.73-.06.07-.12.11-.16.17-.34.31-.67.63-.98.94-.25.25-.5.48-.75.71-.15.15-.3.27-.42.4-.31.31-.61.6-.88.85-.19.19-.37.38-.56.54-1.31,1.28-2.44,2.36-3.32,3.22-1.77,1.71-2.67,2.58-2.67,2.58l759.03,730.68,148.07,142.54.35-1026.4,1014.7,571.14-.65,1089.88-876.76-502.12,464.61,447.25,415.03,237.77,20.72,7.87,292.23-279-166.91,91.29-.62-1091.81,486.06-260.8.66,269.42c-1.35,46.57,31.31,82.53,72.24,83.57,39.38,1,74.19-31.87,75.47-78.56l.46-354.94,435.36-233.87.09,714.06,146.88-140.16,66.05-63.03,374.22-357.59c-22.79-125.53-75.38-233.8-145.22-343.37,129.24,9.97,250.86,27.6,364.93,85.14v-18.21ZM2647.99,1943.07l-1022.13-584.02,357.01-205.49c6.77-3.9,19.99-2.4,28.89.16l1041.04,569.91-404.81,219.44Z"/>
    <path class="cls-2" d="M3189.31,1618.91l-1116.99-611.09c-46.87-25.64-104.32-26.28-151.44.71l-1066.49,610.75c-52.86,30.27-81.09,79.24-95.36,138.08v986.01l148.07,142.54.35-1026.4,1014.7,571.14-.65,1089.88-876.76-502.12,464.61,447.25,415.03,237.77,20.72,7.87,24.23,9.2h49.4c29.54-9.01,56.41-19.69,86.58-36.21l1087.22-595.37c49.55-27.13,94.49-84.78,94.49-148.45v-1171.2c0-66.08-46.93-122.58-97.71-150.36ZM1982.87,1153.56c6.77-3.9,19.99-2.4,28.89.16l1041.04,569.91-404.81,219.44-1022.13-584.02,357.01-205.49ZM988.36,1724.22l478.23-274.94,1016.72,581.19-486.43,262.03-1008.52-568.28ZM3140.19,2914.2c-1.56,15.32-5.52,24.02-16.18,33.16l-886.68,484.94-166.91,91.29-.62-1091.81,486.06-260.8.66,269.42c-1.35,46.57,31.31,82.53,72.24,83.57,39.38,1,74.19-31.87,75.47-78.56l.46-354.94,435.36-233.87.09,714.06.05,343.54Z"/>
  </g>
</svg>