<?xml version="1.0" encoding="UTF-8"?>
<svg id="Layer_2" data-name="Layer 2" xmlns="http://www.w3.org/2000/svg" viewBox="0 0 1665.23 1699.41">
  <defs>
    <style>
      .cls-1 {
        fill: red;
      }

      .cls-2 {
        fill: #fffdba;
      }
    </style>
  </defs>
  <g id="Layer_1-2" data-name="Layer 1">
    <path class="cls-1" d="M567.05,973.89c-27.52-59.98-4.68-129.32,51.01-154.87,55.7-25.55,123.15,2.37,150.67,62.35,27.52,59.99,4.68,129.33-51.01,154.88-55.7,25.55-123.15-2.37-150.67-62.36Z"/>
    <path class="cls-1" d="M650.23,1475.1l185.14,76.61-47.27,45.13c-2.03,1.94-3.22,3.63-4.23,5.19h-1.78l-131.86-126.93Z"/>
    <path class="cls-1" d="M961.03,1300.76c27.52,59.99,4.68,129.33-51.01,154.88-55.7,25.55-123.16-2.37-150.67-62.36-27.52-59.99-4.68-129.33,51.01-154.88,55.7-25.55,123.15,2.37,150.67,62.36Z"/>
    <path class="cls-1" d="M1000.61,991.96c10.39,17.64,7.25,40.78-10.36,51.56l-411.76,252.13c-19.64,12.03-40.91,4.64-51.76-13.92-10.67-18.24-5.29-40.47,12.82-51.55l413.02-252.66c17.19-10.52,38.81-1.23,48.04,14.44Z"/>
    <path class="cls-1" d="M1665.23,731.33c-2.74-7.64-5.86-14.65-10.48-22.29-72.37-119.77-187.58-212.03-316.23-268.48,66.48-40.57,140.75-65.67,217.17-72.9.95-.79,2.32-3.16,2.15-4.17-.2-1.26-1.87-3.27-3.51-4.25-145.88-87.44-326.16-101.69-495.07-90.27-9.86.66-19.67,1.42-29.44,2.25,1.85-3.38,3.76-6.72,5.73-10.01,40.13-67.16,103.32-115.7,168.95-158.63-84.92-.26-164.61,13.97-242.6,44.79-33.62,13.35-64.93,28.13-97.03,44.69l-118.21,60.96c42.85-48.63,75.73-97.61,89.36-160.68,6.42-30.33,6.61-61.94-.54-92.34l-48.91,63.08c-28.48,36.74-63.79,67.71-98.04,99.95-15.09,14.2-29.96,28.64-43.97,43.93l-37.11,40.15C375.84,484.81,61.17,789.96,7.83,841.58c-.11.11-.23.22-.34.33-.39.37-.76.74-1.12,1.07-.51.51-.99.98-1.45,1.42-.02.01-.05.04-.06.05-.27.25-.51.49-.75.73-.03.03-.05.04-.07.07-.14.13-.28.26-.42.4-.1.1-.21.2-.31.3-.06.06-.13.11-.18.16-.13.14-.25.26-.37.36-.08.08-.16.16-.24.23-.55.54-1.03,1-1.4,1.36-.74.72-1.12,1.09-1.12,1.09l309.24,297.69,58.77,56.57,171.11-518.2c56.26-170.38,232.81-258.93,403.3-208.62l-26.87,83.76c-56-2.96-101.97,35.91-111.27,91.26-9.52,56.66,22.16,114.2,74.05,136.03,51.91,21.84,109.56,2.17,135.82-47.36,25.62-48.33,14.62-112.06-30.64-151.56l27.87-83.53c159.67,86.41,241.51,282.9,185.23,454.03l-118.69,360.95,113.03-107.87,223.7-213.47,157.88-150.87c-9.61-52.96-31.8-98.64-61.27-144.86,54.53,4.2,105.84,11.64,153.97,35.92v-7.69ZM933.25,717.87c-20.24,9.28-44.76-.86-54.76-22.66-10-21.81-1.7-47.01,18.54-56.29,20.24-9.29,44.76.86,54.76,22.66s1.7,47-18.54,56.29Z"/>
    <g>
      <path class="cls-2" d="M1034,434.94l39.3-119.63c4.58-13.94,2.68-27.89-7.51-40.43-1.88-2.31-4.08-4.26-6.53-5.91-6.6-4.42-15-6.64-23.71-7.76-.95-.13-1.9-.24-2.86-.34l-17.13,7.86-8.44,13.52-40.98,124.42c-83.01-25.87-169.07-26.13-249.29,1.59-3.99,1.38-7.77,2.41-9.68,1.94l-55.68,25.54c-84.62,50.51-150.26,128.19-182.91,227.32l-159.34,483.78-66.86,202.98-1.15,16.83,7.4,16.14,13.28,11.16,731.65,302.77c19.36,8.01,37.63-2.68,44.83-21.17l152.56-463.25,72.33-219.64c69.82-212.01-29.4-454.41-229.28-557.72ZM933.25,717.87c-20.24,9.28-44.76-.86-54.76-22.66-10-21.81-1.7-47.01,18.54-56.29,20.24-9.29,44.76.86,54.76,22.66s1.7,47-18.54,56.29ZM1196.61,959.22l-118.69,360.95-96.08,292.16-146.47-60.62-185.14-76.61-327.22-135.42,45-136.27,171.11-518.2c56.26-170.38,232.81-258.93,403.3-208.62l-26.87,83.76c-56-2.96-101.97,35.91-111.27,91.26-9.52,56.66,22.16,114.2,74.05,136.03,51.91,21.84,109.56,2.17,135.82-47.36,25.62-48.33,14.62-112.06-30.64-151.56l27.87-83.53c159.67,86.41,241.51,282.9,185.23,454.03Z"/>
      <path class="cls-2" d="M990.25,1043.52l-411.76,252.13c-19.64,12.03-40.91,4.64-51.76-13.92-10.67-18.24-5.29-40.47,12.82-51.55l413.02-252.66c17.19-10.52,38.81-1.23,48.04,14.44,10.39,17.64,7.25,40.78-10.36,51.56Z"/>
      <path class="cls-2" d="M768.73,881.37c-27.52-59.98-94.97-87.9-150.67-62.35-55.69,25.55-78.53,94.89-51.01,154.87,27.52,59.99,94.97,87.91,150.67,62.36,55.69-25.55,78.53-94.89,51.01-154.88ZM685.97,967.09c-20.23,9.28-44.73-.86-54.72-22.64-10-21.79-1.7-46.97,18.52-56.25,20.23-9.28,44.73.86,54.72,22.64,10,21.79,1.7,46.97-18.52,56.25Z"/>
      <path class="cls-2" d="M961.03,1300.76c-27.52-59.99-94.97-87.91-150.67-62.36-55.69,25.55-78.53,94.89-51.01,154.88,27.51,59.99,94.97,87.91,150.67,62.36,55.69-25.55,78.53-94.89,51.01-154.88ZM878.27,1386.46c-20.22,9.28-44.71-.86-54.7-22.64-10-21.78-1.7-46.96,18.52-56.24,20.22-9.27,44.71.86,54.71,22.64,9.99,21.79,1.7,46.96-18.53,56.24Z"/>
    </g>
  </g>
</svg>