<?xml version="1.0" encoding="UTF-8"?>
<svg id="Layer_2" data-name="Layer 2" xmlns="http://www.w3.org/2000/svg" viewBox="0 0 1665.23 1445.85">
  <defs>
    <style>
      .cls-1 {
        fill: none;
      }

      .cls-2 {
        fill: red;
      }

      .cls-3 {
        fill: #fffdba;
      }
    </style>
  </defs>
  <g id="Layer_1-2" data-name="Layer 1">
    <path class="cls-2" d="M1665.23,731.33c-2.74-7.64-5.86-14.65-10.48-22.29-72.37-119.77-187.58-212.03-316.23-268.48,66.48-40.57,140.75-65.67,217.17-72.9.95-.79,2.32-3.16,2.15-4.17-.2-1.26-1.87-3.27-3.51-4.25-154.39-92.54-347.31-103.1-524.51-88.02,39.67-72.4,105.83-123.61,174.68-168.64-84.92-.26-164.61,13.97-242.6,44.79-33.62,13.35-64.93,28.13-97.03,44.69l-118.21,60.96c42.85-48.63,75.73-97.61,89.36-160.68,6.42-30.33,6.61-61.94-.54-92.34l-48.91,63.08c-28.48,36.74-63.79,67.71-98.04,99.95-15.09,14.2-29.96,28.64-43.97,43.93l-37.11,40.15C375.84,484.81,61.17,789.96,7.83,841.58c-.11.11-.23.22-.34.33-.39.37-.76.74-1.12,1.07-.51.51-.99.98-1.45,1.42-.02.01-.05.04-.06.05-.27.25-.51.49-.75.73-.03.03-.05.04-.07.07-.14.13-.28.26-.42.4-.1.1-.21.2-.31.3-.06.06-.13.11-.18.16-.13.14-.25.26-.37.36-.08.08-.16.16-.24.23-.55.54-1.03,1-1.4,1.36-.74.72-1.12,1.09-1.12,1.09l409.85,394.54,59.59,57.37c17.48-46.82,43.5-90.33,77.02-128.64,79.76-91.18,193.14-141.8,313.67-142.34,68.62-.31,131.28-25.04,180.04-65.8l75.93,77.29-.63.63,85.41,85.65-61.38.66c-132.73,1.43-243.97,105.96-244.33,238.9l-.21,78.15h51.61s25.16-24.03,25.16-24.03l.37-53.79c.64-91.31,77.2-163.21,167.09-162.49l58.66.47,97.09-92.66,119.71-114.23,157.88-150.87c-9.61-52.96-31.8-98.64-61.27-144.86,54.53,4.2,105.84,11.64,153.97,35.92v-7.69ZM858.36,953.41c-114.46,0-207.25-92.79-207.25-207.25s92.79-207.25,207.25-207.25,207.25,92.79,207.25,207.25-92.79,207.25-207.25,207.25Z"/>
    <g>
      <path class="cls-3" d="M1350.58,1168.67l-180.67,180.77-54.46-54.1,89-89.57-6.6-.05-58.66-.47c-89.89-.72-166.45,71.18-167.09,162.49l-.37,53.79-.17,24.02h-76.6s.21-78.14.21-78.14c.36-132.94,111.6-237.47,244.33-238.9l61.38-.66-85.41-85.65.63-.63,53.6-53.68,125.24,125.17,55.64,55.61Z"/>
      <path class="cls-3" d="M884.97,463.3c-2.59-.25-5.84-.67-7.12-1.42h-38.44c-117.46,9.74-217.76,88.14-252.24,199.89-36.94,119.75,6.96,246.42,110.3,318.67-64.36,22.34-122.59,57.59-173.02,104.05-49.73,45.82-88.03,99.88-114.6,159.2-24.04,53.59-38.51,111.47-43.2,171.41v30.75l76.93-.36c-.11-50.14,8.83-98.86,25.86-144.43,17.48-46.82,43.5-90.33,77.02-128.64,79.76-91.18,193.14-141.8,313.67-142.34,68.62-.31,131.28-25.04,180.04-65.8,59.81-49.98,98.7-124.06,102.03-206.7,6.03-149.58-105.92-279.69-257.23-294.28ZM858.36,953.41c-114.46,0-207.25-92.79-207.25-207.25s92.79-207.25,207.25-207.25,207.25,92.79,207.25,207.25-92.79,207.25-207.25,207.25Z"/>
    </g>
    <line class="cls-1" x1="1200.88" y1="1127.85" x2="1116.1" y2="1041.57"/>
  </g>
</svg>