<?xml version="1.0" encoding="UTF-8"?>
<svg id="Layer_2" data-name="Layer 2" xmlns="http://www.w3.org/2000/svg" viewBox="0 0 3947.01 3125.43">
  <defs>
    <style>
      .cls-1 {
        fill: red;
      }

      .cls-2 {
        fill: #fffdba;
      }
    </style>
  </defs>
  <g id="Layer_1-2" data-name="Layer 1">
    <path d="M3767.28,2026.35c.12-.11.24-.22.36-.34v-.02c-.11.13-.24.25-.36.36Z"/>
    <path class="cls-1" d="M3947.01,1733.43c-6.49-18.11-13.9-34.74-24.85-52.84-171.53-283.89-444.61-502.57-749.53-636.35,157.57-96.18,333.61-155.67,514.75-172.8,2.25-1.88,5.49-7.49,5.09-9.89-.48-2.98-4.42-7.74-8.32-10.08-365.94-219.34-823.21-244.37-1243.22-208.62,94.02-171.6,250.84-292.98,414.04-399.71-201.3-.62-390.18,33.11-575.04,106.17-79.67,31.62-153.87,66.65-229.98,105.91l-280.17,144.49c101.55-115.26,179.49-231.36,211.79-380.85,15.23-71.89,15.67-146.81-1.27-218.86l-115.93,149.51c-67.51,87.08-151.19,160.49-232.38,236.91-35.76,33.65-71.02,67.89-104.21,104.12l-87.97,95.17C890.85,1149.11,144.99,1872.39,18.57,1994.74c-.27.26-.54.53-.81.78-.92.89-1.8,1.75-2.65,2.54-1.21,1.21-2.36,2.32-3.44,3.36-.05.04-.11.11-.15.13-.63.6-1.21,1.16-1.77,1.73-.07.06-.13.1-.17.16-.33.32-.67.63-.98.94-.25.25-.5.48-.75.71-.15.15-.29.27-.42.4-.31.31-.6.6-.87.85-.19.19-.38.38-.57.55-1.31,1.27-2.44,2.35-3.32,3.21-1.77,1.71-2.67,2.59-2.67,2.59l944.17,908.9,211.76,203.84.61-278.65c.28-126.02,106.34-227.83,232.42-227.85l1016.89-.2h.01c129.66-.02,235.55,100.74,235.84,228.39l.46,198.74,212.9-203.16,498.01-475.24,374.22-357.59c-22.78-125.53-75.38-233.8-145.22-343.37,129.24,9.98,250.86,27.6,364.94,85.14v-18.21ZM1899.15,1259.49c222.86,0,403.52,180.65,403.52,403.51s-180.66,403.51-403.52,403.51-403.51-180.65-403.51-403.51,180.66-403.51,403.51-403.51Z"/>
    <g id="uuid-6cbb0950-1de7-4bfc-861f-1e573d9fa330" data-name="Layer 1-2">
      <path class="cls-2" d="M2855.06,2842.7l-212.9,203.16-.46-198.74c-.29-127.65-106.18-228.41-235.84-228.38h-.01s-1016.89.19-1016.89.19c-126.08.02-232.14,101.83-232.42,227.85l-.61,278.65-211.76-203.84.14-80.35c.39-234.3,197.5-433.37,434.27-433.53l1034.23-.68c242.96-.16,434.77,197.3,442.25,435.67Z"/>
      <path class="cls-2" d="M1899.16,1047.11c-340.15,0-615.91,275.74-615.91,615.9s275.75,615.89,615.9,615.89,615.9-275.74,615.9-615.89h.01c0-340.16-275.75-615.9-615.9-615.9ZM1899.15,2066.51c-222.85,0-403.51-180.65-403.51-403.51s180.66-403.51,403.51-403.51,403.52,180.65,403.52,403.51-180.66,403.51-403.52,403.51Z"/>
    </g>
  </g>
</svg>