<?xml version="1.0" encoding="UTF-8"?>
<svg id="Layer_2" data-name="Layer 2" xmlns="http://www.w3.org/2000/svg" viewBox="0 0 1665.23 1460.23">
  <defs>
    <style>
      .cls-1 {
        fill: none;
      }

      .cls-2 {
        fill: red;
      }

      .cls-3 {
        fill: #fffdba;
      }
    </style>
  </defs>
  <g id="Layer_1-2" data-name="Layer 1">
    <path class="cls-2" d="M1665.23,731.33c-2.74-7.64-5.86-14.65-10.48-22.29-72.37-119.77-187.58-212.03-316.23-268.48,66.48-40.57,140.75-65.67,217.17-72.9.95-.79,2.32-3.16,2.15-4.17-.2-1.26-1.87-3.27-3.51-4.25-154.39-92.54-347.31-103.1-524.51-88.02,39.67-72.4,105.83-123.61,174.68-168.64-84.92-.26-164.61,13.97-242.6,44.79-33.62,13.35-64.93,28.13-97.03,44.69l-118.21,60.96c42.85-48.63,75.73-97.61,89.36-160.68,6.42-30.33,6.61-61.94-.54-92.34l-48.91,63.08c-28.48,36.74-63.79,67.71-98.04,99.95-15.09,14.2-29.96,28.64-43.97,43.93l-37.11,40.15C375.84,484.81,61.17,789.96,7.83,841.58c-.11.11-.23.22-.34.33-.39.37-.76.74-1.12,1.07-.51.51-.99.98-1.45,1.42-.02.01-.05.04-.06.05-.27.25-.51.49-.75.73-.03.03-.05.04-.07.07-.14.13-.28.26-.42.4-.1.1-.21.2-.31.3-.06.06-.13.11-.18.16-.13.14-.25.26-.37.36-.08.08-.16.16-.24.23-.55.54-1.03,1-1.4,1.36-.74.72-1.12,1.09-1.12,1.09l399.54,384.62,69.24,66.65,15.38,14.8,75.37,72.56h267.13s1.06-.02,1.06-.02l150.64-1.83c5.66,5.63,12.49,9.22,19.57,10.58l55.01-52.51,47.38-45.22c-30.79-19.22-51.28-53.4-51.28-92.38,0-60.12,48.74-108.86,108.86-108.86,40.8,0,76.35,22.44,94.98,55.66l92.95-88.7,68.82-65.67,157.88-150.87c-9.61-52.96-31.8-98.64-61.27-144.86,54.53,4.2,105.84,11.64,153.97,35.92v-7.69ZM831.38,517.06c80.19,0,145.19,65.01,145.19,145.2s-65,145.19-145.19,145.19-145.2-65-145.2-145.19,65.01-145.2,145.2-145.2Z"/>
    <path class="cls-3" d="M827.72,1387.76h-1.06s-267.13.02-267.13.02l-75.37-72.56,342.53.06c20.74.01,35.33,16.82,35.81,35.25.49,18.89-13.84,36.65-34.78,37.23Z"/>
    <path class="cls-3" d="M867.71,1025.05l-149.26.24c-136.85.23-249.46,110.7-249.64,247.14l-.03,27.99-69.24-66.65c23.23-159.77,159.64-281.45,326-281.38l142.14.07c21.01.01,36.66,15.73,37.21,35.2.57,20.55-15.45,37.35-37.18,37.39Z"/>
    <path class="cls-3" d="M1411.72,1205.49c-.75-18.78-15.95-34.73-36.1-34.92l-39.94-.37c-5.41-24-13.87-43.41-26.46-63.76l28.29-28.68c3.89-3.95,6.65-8.48,8.32-13.26,4.82-13.66.88-29.3-10.14-38.95-15.61-13.67-37.11-11.5-51.64,3.17l-26.16,26.4c-20.38-12.77-39.82-21.01-63.39-26.61l-.71-42.09c-.35-20.28-18.71-34.49-36.94-33.89-19.08.63-35.09,15.81-35.28,36.08l-.35,39.96c-23.54,5.54-43.18,13.96-63.3,26.5l-32.57-31.35c-13.56-13.04-34.21-8.62-46.21,2.83-12.37,11.8-17.38,32.12-5.09,46.48,9.94,11.62,21.16,22.29,32.27,33.78-12.55,20.23-21,41.03-26.64,63.54-16,.14-30.97-.07-45.85.89-19.1,1.23-30.12,19.23-29.77,36.28.33,16.08,10.91,34.24,29.49,34.69l46.52,1.14c5.58,23.07,13.97,42.69,26.38,62.81l-29.47,29.91c-14.24,14.47-12.74,35.84,1.38,49.86,5.66,5.63,12.49,9.22,19.57,10.58,10.52,2.03,21.59-.89,30.21-9.39l29.79-29.39c20.51,12.91,41.02,20.99,63.49,26.95l.16,40.81c.09,21.21,16.79,34.73,36.22,34.74,21.17.01,36.15-15.18,36.26-36.11l.21-39.79c23.91-5.65,43.06-14.08,63.28-26.41l28.77,28.45c14.85,14.69,38.14,13.74,51.74-.79,12.99-13.87,13.55-36.08-.59-50.43l-28.31-28.73c12.65-20.18,20.91-39.93,26.49-63.05l42.17-.72c20.26-.35,34.64-18.65,33.9-37.16ZM1157.9,1315.25c-21.14,0-40.88-6.03-57.58-16.47-30.79-19.22-51.28-53.4-51.28-92.38,0-60.12,48.74-108.86,108.86-108.86,40.8,0,76.35,22.44,94.98,55.66,8.84,15.73,13.88,33.88,13.88,53.2,0,60.12-48.74,108.85-108.86,108.85Z"/>
    <path class="cls-3" d="M831.39,444.75c-120.13,0-217.52,97.38-217.52,217.51s97.39,217.52,217.52,217.52,217.52-97.39,217.52-217.52-97.39-217.51-217.52-217.51ZM831.38,807.45c-80.19,0-145.2-65-145.2-145.19s65.01-145.2,145.2-145.2,145.19,65.01,145.19,145.2-65,145.19-145.19,145.19Z"/>
    <line class="cls-1" x1="827.72" y1="1387.76" x2="826.66" y2="1387.77"/>
  </g>
</svg>