<?xml version="1.0" encoding="UTF-8"?>
<svg id="Layer_2" data-name="Layer 2" xmlns="http://www.w3.org/2000/svg" viewBox="0 0 4217.02 4082.76">
  <defs>
    <style>
      .cls-1 {
        fill: #fffdba;
      }

      .cls-2 {
        fill: red;
      }
    </style>
  </defs>
  <g id="Layer_1-2" data-name="Layer 1">
    <path class="cls-2" d="M4129.02,1949.21c-115.65-57.54-238.96-75.17-369.99-85.14,70.81,109.57,124.13,217.84,147.23,343.37l-379.41,357.59-869.22,818.14-636.43,599.3c-4.89,4.59-7.74,8.6-10.15,12.29h-4.29L127.32,2210.26s.91-.88,2.71-2.59c.89-.86,2.03-1.94,3.36-3.21.19-.17.38-.35.57-.54.27-.25.57-.54.89-.86.13-.13.28-.25.42-.4.25-.23.51-.46.76-.71.32-.31.66-.63.99-.94.04-.06.11-.1.17-.17.57-.56,1.16-1.13,1.8-1.73.04-.02.11-.08.15-.13,1.1-1.04,2.26-2.15,3.49-3.36.87-.79,1.76-1.65,2.69-2.55.27-.25.55-.52.82-.77,128.17-122.35,884.36-845.64,1440.93-1409.03l89.19-95.17c33.65-36.24,69.4-70.47,105.65-104.12,82.32-76.42,167.16-149.83,235.6-236.91l117.54-149.52c17.17,72.06,16.73,146.97,1.29,218.86-32.74,149.5-111.76,265.59-214.72,380.85l284.06-144.49c77.16-39.26,152.39-74.29,233.17-105.92,187.42-73.06,378.92-106.79,583-106.17-165.46,106.73-324.46,228.1-419.78,399.71,425.83-35.76,889.44-10.72,1260.45,208.62,3.96,2.34,7.95,7.09,8.44,10.08.4,2.4-2.88,8.01-5.16,9.89-183.65,17.13-362.13,76.63-521.88,172.8,309.14,133.79,586.01,352.46,759.91,636.35,11.1,18.11,18.61,34.74,25.19,52.84v18.21Z"/>
    <g>
      <path class="cls-1" d="M1223.65,2842.74l297.18-626.98-305.09-646.08h335.6l140.11,288.03,142.37-288.03h333.34l-306.22,646.08,292.66,626.98h-334.47l-127.68-268.93-128.81,270.53h-266.67l-72.32-1.59Z"/>
      <path class="cls-1" d="M2212.35,1569.68h578.54c142.37,0,249.72,192.55,249.72,402.61,0,224.38-117.51,407.38-263.28,407.38h-282.49v463.08h-282.49v-1273.06ZM2703.87,2072.54c28.25,0,54.24-44.56,54.24-98.66s-24.86-97.07-54.24-97.07h-209.04v195.73h209.04Z"/>
    </g>
  </g>
</svg>